<mxfile host="app.diagrams.net" modified="2024-07-19T01:53:46.544Z" agent="Mozilla/5.0 (X11; Ubuntu; Linux x86_64; rv:128.0) Gecko/20100101 Firefox/128.0" etag="LFBXR3pyiflldnOa4rU0" version="24.7.1" type="device" pages="3">
  <diagram name="Page-1" id="QK_pfraKHjW8j_oFgVRo">
    <mxGraphModel dx="1364" dy="766" grid="1" gridSize="10" guides="1" tooltips="1" connect="1" arrows="1" fold="1" page="1" pageScale="1" pageWidth="850" pageHeight="1100" math="0" shadow="0">
      <root>
        <mxCell id="0" />
        <mxCell id="1" parent="0" />
        <mxCell id="PL_Is-AztLMhs4__08pE-5" value="" style="edgeStyle=orthogonalEdgeStyle;rounded=0;orthogonalLoop=1;jettySize=auto;html=1;entryX=0.5;entryY=1;entryDx=0;entryDy=0;" edge="1" parent="1" source="PL_Is-AztLMhs4__08pE-1" target="PL_Is-AztLMhs4__08pE-4">
          <mxGeometry relative="1" as="geometry" />
        </mxCell>
        <mxCell id="PL_Is-AztLMhs4__08pE-6" value="" style="edgeStyle=orthogonalEdgeStyle;rounded=0;orthogonalLoop=1;jettySize=auto;html=1;entryX=0.5;entryY=1;entryDx=0;entryDy=0;" edge="1" parent="1" source="PL_Is-AztLMhs4__08pE-1" target="PL_Is-AztLMhs4__08pE-2">
          <mxGeometry relative="1" as="geometry" />
        </mxCell>
        <mxCell id="PL_Is-AztLMhs4__08pE-7" value="" style="edgeStyle=orthogonalEdgeStyle;rounded=0;orthogonalLoop=1;jettySize=auto;html=1;" edge="1" parent="1" source="PL_Is-AztLMhs4__08pE-1" target="PL_Is-AztLMhs4__08pE-3">
          <mxGeometry relative="1" as="geometry" />
        </mxCell>
        <mxCell id="PL_Is-AztLMhs4__08pE-1" value="&lt;div&gt;Treasury&lt;/div&gt;" style="rounded=0;whiteSpace=wrap;html=1;" vertex="1" parent="1">
          <mxGeometry x="365" y="300" width="120" height="60" as="geometry" />
        </mxCell>
        <mxCell id="PL_Is-AztLMhs4__08pE-13" value="" style="edgeStyle=orthogonalEdgeStyle;rounded=0;orthogonalLoop=1;jettySize=auto;html=1;entryX=0;entryY=0.5;entryDx=0;entryDy=0;exitX=0.5;exitY=0;exitDx=0;exitDy=0;" edge="1" parent="1" source="PL_Is-AztLMhs4__08pE-2" target="PL_Is-AztLMhs4__08pE-11">
          <mxGeometry relative="1" as="geometry">
            <mxPoint x="210" y="50" as="targetPoint" />
          </mxGeometry>
        </mxCell>
        <mxCell id="PL_Is-AztLMhs4__08pE-2" value="VoucherManager" style="rounded=0;whiteSpace=wrap;html=1;" vertex="1" parent="1">
          <mxGeometry x="150" y="130" width="120" height="60" as="geometry" />
        </mxCell>
        <mxCell id="PL_Is-AztLMhs4__08pE-10" value="" style="edgeStyle=orthogonalEdgeStyle;rounded=0;orthogonalLoop=1;jettySize=auto;html=1;" edge="1" parent="1" source="PL_Is-AztLMhs4__08pE-3" target="PL_Is-AztLMhs4__08pE-4">
          <mxGeometry relative="1" as="geometry" />
        </mxCell>
        <mxCell id="PL_Is-AztLMhs4__08pE-3" value="&lt;div&gt;GymManager&lt;/div&gt;" style="rounded=0;whiteSpace=wrap;html=1;" vertex="1" parent="1">
          <mxGeometry x="365" y="130" width="120" height="60" as="geometry" />
        </mxCell>
        <mxCell id="JUnecZ5LjPBNZ2E51R0k-2" value="" style="edgeStyle=orthogonalEdgeStyle;rounded=0;orthogonalLoop=1;jettySize=auto;html=1;" edge="1" parent="1" source="PL_Is-AztLMhs4__08pE-4" target="JUnecZ5LjPBNZ2E51R0k-1">
          <mxGeometry relative="1" as="geometry" />
        </mxCell>
        <mxCell id="PL_Is-AztLMhs4__08pE-4" value="StakeManger" style="rounded=0;whiteSpace=wrap;html=1;" vertex="1" parent="1">
          <mxGeometry x="580" y="130" width="120" height="60" as="geometry" />
        </mxCell>
        <mxCell id="PL_Is-AztLMhs4__08pE-21" value="" style="edgeStyle=orthogonalEdgeStyle;rounded=0;orthogonalLoop=1;jettySize=auto;html=1;entryX=1;entryY=0.5;entryDx=0;entryDy=0;exitX=0.5;exitY=0;exitDx=0;exitDy=0;" edge="1" parent="1" source="JUnecZ5LjPBNZ2E51R0k-9" target="PL_Is-AztLMhs4__08pE-4">
          <mxGeometry relative="1" as="geometry">
            <mxPoint x="720" y="410" as="sourcePoint" />
            <mxPoint x="720" y="330" as="targetPoint" />
            <Array as="points">
              <mxPoint x="720" y="400" />
              <mxPoint x="720" y="160" />
            </Array>
          </mxGeometry>
        </mxCell>
        <mxCell id="PL_Is-AztLMhs4__08pE-16" value="" style="edgeStyle=orthogonalEdgeStyle;rounded=0;orthogonalLoop=1;jettySize=auto;html=1;entryX=0;entryY=0.5;entryDx=0;entryDy=0;exitX=0.5;exitY=0;exitDx=0;exitDy=0;" edge="1" parent="1" source="JUnecZ5LjPBNZ2E51R0k-8" target="PL_Is-AztLMhs4__08pE-2">
          <mxGeometry relative="1" as="geometry">
            <mxPoint x="130" y="410" as="sourcePoint" />
            <mxPoint x="130" y="330" as="targetPoint" />
          </mxGeometry>
        </mxCell>
        <mxCell id="PL_Is-AztLMhs4__08pE-18" value="" style="edgeStyle=orthogonalEdgeStyle;rounded=0;orthogonalLoop=1;jettySize=auto;html=1;entryX=0.25;entryY=1;entryDx=0;entryDy=0;exitX=1;exitY=0.5;exitDx=0;exitDy=0;" edge="1" parent="1" source="JUnecZ5LjPBNZ2E51R0k-8" target="PL_Is-AztLMhs4__08pE-1">
          <mxGeometry relative="1" as="geometry">
            <mxPoint x="180" y="440" as="sourcePoint" />
            <mxPoint x="270" y="440" as="targetPoint" />
          </mxGeometry>
        </mxCell>
        <mxCell id="PL_Is-AztLMhs4__08pE-11" value="&lt;div&gt;Checkin&lt;/div&gt;" style="rounded=0;whiteSpace=wrap;html=1;" vertex="1" parent="1">
          <mxGeometry x="290" y="20" width="60" height="60" as="geometry" />
        </mxCell>
        <mxCell id="PL_Is-AztLMhs4__08pE-14" value="" style="edgeStyle=orthogonalEdgeStyle;rounded=0;orthogonalLoop=1;jettySize=auto;html=1;entryX=1;entryY=0.5;entryDx=0;entryDy=0;exitX=0.5;exitY=0;exitDx=0;exitDy=0;" edge="1" parent="1" source="PL_Is-AztLMhs4__08pE-3" target="PL_Is-AztLMhs4__08pE-11">
          <mxGeometry relative="1" as="geometry">
            <mxPoint x="220" y="140" as="sourcePoint" />
            <mxPoint x="300" y="60" as="targetPoint" />
          </mxGeometry>
        </mxCell>
        <mxCell id="PL_Is-AztLMhs4__08pE-19" value="" style="edgeStyle=orthogonalEdgeStyle;rounded=0;orthogonalLoop=1;jettySize=auto;html=1;entryX=0.75;entryY=1;entryDx=0;entryDy=0;exitX=0;exitY=0.5;exitDx=0;exitDy=0;" edge="1" parent="1" source="JUnecZ5LjPBNZ2E51R0k-9" target="PL_Is-AztLMhs4__08pE-1">
          <mxGeometry relative="1" as="geometry">
            <mxPoint x="660" y="440" as="sourcePoint" />
            <mxPoint x="405" y="370" as="targetPoint" />
          </mxGeometry>
        </mxCell>
        <mxCell id="JUnecZ5LjPBNZ2E51R0k-1" value="&lt;div&gt;Pools&lt;/div&gt;" style="shape=cylinder3;whiteSpace=wrap;html=1;boundedLbl=1;backgroundOutline=1;size=15;" vertex="1" parent="1">
          <mxGeometry x="690" y="20" width="60" height="80" as="geometry" />
        </mxCell>
        <mxCell id="JUnecZ5LjPBNZ2E51R0k-3" value="List" style="shape=cylinder3;whiteSpace=wrap;html=1;boundedLbl=1;backgroundOutline=1;size=15;" vertex="1" parent="1">
          <mxGeometry x="470" y="20" width="60" height="80" as="geometry" />
        </mxCell>
        <mxCell id="JUnecZ5LjPBNZ2E51R0k-4" style="edgeStyle=orthogonalEdgeStyle;rounded=0;orthogonalLoop=1;jettySize=auto;html=1;entryX=0.5;entryY=1;entryDx=0;entryDy=0;entryPerimeter=0;exitX=0.75;exitY=0;exitDx=0;exitDy=0;" edge="1" parent="1" source="PL_Is-AztLMhs4__08pE-3" target="JUnecZ5LjPBNZ2E51R0k-3">
          <mxGeometry relative="1" as="geometry" />
        </mxCell>
        <mxCell id="JUnecZ5LjPBNZ2E51R0k-5" value="NFTs" style="shape=cylinder3;whiteSpace=wrap;html=1;boundedLbl=1;backgroundOutline=1;size=15;" vertex="1" parent="1">
          <mxGeometry x="80" y="10" width="60" height="80" as="geometry" />
        </mxCell>
        <mxCell id="JUnecZ5LjPBNZ2E51R0k-6" style="edgeStyle=orthogonalEdgeStyle;rounded=0;orthogonalLoop=1;jettySize=auto;html=1;entryX=0.5;entryY=1;entryDx=0;entryDy=0;entryPerimeter=0;exitX=0.25;exitY=0;exitDx=0;exitDy=0;" edge="1" parent="1" source="PL_Is-AztLMhs4__08pE-2" target="JUnecZ5LjPBNZ2E51R0k-5">
          <mxGeometry relative="1" as="geometry" />
        </mxCell>
        <mxCell id="JUnecZ5LjPBNZ2E51R0k-7" value="GOVERNANCE" style="rounded=0;whiteSpace=wrap;html=1;" vertex="1" parent="1">
          <mxGeometry x="40" y="520" width="780" height="60" as="geometry" />
        </mxCell>
        <mxCell id="JUnecZ5LjPBNZ2E51R0k-8" value="ComercialToken" style="ellipse;whiteSpace=wrap;html=1;aspect=fixed;" vertex="1" parent="1">
          <mxGeometry x="90" y="400" width="80" height="80" as="geometry" />
        </mxCell>
        <mxCell id="JUnecZ5LjPBNZ2E51R0k-9" value="DGYM" style="ellipse;whiteSpace=wrap;html=1;aspect=fixed;" vertex="1" parent="1">
          <mxGeometry x="680" y="400" width="80" height="80" as="geometry" />
        </mxCell>
      </root>
    </mxGraphModel>
  </diagram>
  <diagram id="a1pOU07vIHDiQZvq9NTO" name="Supply Chain">
    <mxGraphModel dx="941" dy="528" grid="1" gridSize="10" guides="1" tooltips="1" connect="1" arrows="1" fold="1" page="1" pageScale="1" pageWidth="850" pageHeight="1100" math="0" shadow="0">
      <root>
        <mxCell id="0" />
        <mxCell id="1" parent="0" />
        <mxCell id="OdPtIPOlF_7DUM1VeVN8-24" value="&lt;div&gt;DeGYM DAO&lt;/div&gt;" style="swimlane;whiteSpace=wrap;html=1;" vertex="1" parent="1">
          <mxGeometry x="190" y="60" width="480" height="460" as="geometry" />
        </mxCell>
        <mxCell id="OdPtIPOlF_7DUM1VeVN8-69" value="" style="edgeStyle=orthogonalEdgeStyle;rounded=0;orthogonalLoop=1;jettySize=auto;html=1;exitX=0;exitY=0.75;exitDx=0;exitDy=0;entryX=0.75;entryY=0;entryDx=0;entryDy=0;" edge="1" parent="OdPtIPOlF_7DUM1VeVN8-24" source="OdPtIPOlF_7DUM1VeVN8-26" target="OdPtIPOlF_7DUM1VeVN8-45">
          <mxGeometry relative="1" as="geometry">
            <mxPoint x="180" y="390" as="targetPoint" />
            <Array as="points">
              <mxPoint x="175" y="290" />
            </Array>
          </mxGeometry>
        </mxCell>
        <mxCell id="OdPtIPOlF_7DUM1VeVN8-26" value="Treasury" style="whiteSpace=wrap;html=1;aspect=fixed;" vertex="1" parent="OdPtIPOlF_7DUM1VeVN8-24">
          <mxGeometry x="185" y="200" width="120" height="120" as="geometry" />
        </mxCell>
        <mxCell id="OdPtIPOlF_7DUM1VeVN8-67" value="" style="edgeStyle=orthogonalEdgeStyle;rounded=0;orthogonalLoop=1;jettySize=auto;html=1;entryX=0;entryY=0.25;entryDx=0;entryDy=0;exitX=1;exitY=0.75;exitDx=0;exitDy=0;" edge="1" parent="OdPtIPOlF_7DUM1VeVN8-24" source="OdPtIPOlF_7DUM1VeVN8-36" target="OdPtIPOlF_7DUM1VeVN8-46">
          <mxGeometry relative="1" as="geometry">
            <Array as="points">
              <mxPoint x="323" y="150" />
              <mxPoint x="323" y="190" />
            </Array>
          </mxGeometry>
        </mxCell>
        <mxCell id="OdPtIPOlF_7DUM1VeVN8-36" value="Checkin" style="whiteSpace=wrap;html=1;aspect=fixed;" vertex="1" parent="OdPtIPOlF_7DUM1VeVN8-24">
          <mxGeometry x="215" y="120" width="40" height="40" as="geometry" />
        </mxCell>
        <mxCell id="OdPtIPOlF_7DUM1VeVN8-42" value="" style="edgeStyle=orthogonalEdgeStyle;rounded=0;orthogonalLoop=1;jettySize=auto;html=1;entryX=1;entryY=0.25;entryDx=0;entryDy=0;exitX=0;exitY=0.5;exitDx=0;exitDy=0;" edge="1" parent="OdPtIPOlF_7DUM1VeVN8-24" source="OdPtIPOlF_7DUM1VeVN8-46" target="OdPtIPOlF_7DUM1VeVN8-26">
          <mxGeometry relative="1" as="geometry">
            <mxPoint x="350" y="194.9999999999999" as="sourcePoint" />
            <mxPoint x="290" y="215" as="targetPoint" />
          </mxGeometry>
        </mxCell>
        <mxCell id="OdPtIPOlF_7DUM1VeVN8-45" value="StakeManager" style="rounded=0;whiteSpace=wrap;html=1;" vertex="1" parent="OdPtIPOlF_7DUM1VeVN8-24">
          <mxGeometry x="40" y="400" width="180" height="60" as="geometry" />
        </mxCell>
        <mxCell id="OdPtIPOlF_7DUM1VeVN8-46" value="VoucherManager" style="rounded=0;whiteSpace=wrap;html=1;" vertex="1" parent="OdPtIPOlF_7DUM1VeVN8-24">
          <mxGeometry x="380" y="150" width="100" height="160" as="geometry" />
        </mxCell>
        <mxCell id="OdPtIPOlF_7DUM1VeVN8-59" value="" style="edgeStyle=orthogonalEdgeStyle;rounded=0;orthogonalLoop=1;jettySize=auto;html=1;entryX=0.25;entryY=0;entryDx=0;entryDy=0;exitX=0.75;exitY=1;exitDx=0;exitDy=0;" edge="1" parent="OdPtIPOlF_7DUM1VeVN8-24" source="OdPtIPOlF_7DUM1VeVN8-48" target="OdPtIPOlF_7DUM1VeVN8-45">
          <mxGeometry relative="1" as="geometry" />
        </mxCell>
        <mxCell id="OdPtIPOlF_7DUM1VeVN8-48" value="GymManager" style="rounded=0;whiteSpace=wrap;html=1;" vertex="1" parent="OdPtIPOlF_7DUM1VeVN8-24">
          <mxGeometry y="150" width="100" height="160" as="geometry" />
        </mxCell>
        <mxCell id="OdPtIPOlF_7DUM1VeVN8-49" value="Use Voucher" style="text;html=1;align=center;verticalAlign=middle;whiteSpace=wrap;rounded=0;" vertex="1" parent="OdPtIPOlF_7DUM1VeVN8-24">
          <mxGeometry x="330" y="100" width="60" height="30" as="geometry" />
        </mxCell>
        <mxCell id="OdPtIPOlF_7DUM1VeVN8-50" value="Validate Gym" style="text;html=1;align=center;verticalAlign=middle;whiteSpace=wrap;rounded=0;" vertex="1" parent="OdPtIPOlF_7DUM1VeVN8-24">
          <mxGeometry x="110" y="130" width="60" height="30" as="geometry" />
        </mxCell>
        <mxCell id="OdPtIPOlF_7DUM1VeVN8-51" value="Pays On Checkin" style="text;html=1;align=center;verticalAlign=middle;whiteSpace=wrap;rounded=0;" vertex="1" parent="OdPtIPOlF_7DUM1VeVN8-24">
          <mxGeometry x="-30" y="100" width="60" height="30" as="geometry" />
        </mxCell>
        <mxCell id="OdPtIPOlF_7DUM1VeVN8-39" value="" style="edgeStyle=orthogonalEdgeStyle;rounded=0;orthogonalLoop=1;jettySize=auto;html=1;entryX=1;entryY=0.25;entryDx=0;entryDy=0;exitX=0;exitY=0.75;exitDx=0;exitDy=0;" edge="1" parent="OdPtIPOlF_7DUM1VeVN8-24" source="OdPtIPOlF_7DUM1VeVN8-36" target="OdPtIPOlF_7DUM1VeVN8-48">
          <mxGeometry relative="1" as="geometry">
            <mxPoint x="80" y="120" as="sourcePoint" />
          </mxGeometry>
        </mxCell>
        <mxCell id="OdPtIPOlF_7DUM1VeVN8-54" value="Pays On Renew" style="text;html=1;align=center;verticalAlign=middle;whiteSpace=wrap;rounded=0;" vertex="1" parent="OdPtIPOlF_7DUM1VeVN8-24">
          <mxGeometry x="320" y="200" width="60" height="30" as="geometry" />
        </mxCell>
        <mxCell id="OdPtIPOlF_7DUM1VeVN8-57" value="Verify Stake Counterpart" style="text;html=1;align=center;verticalAlign=middle;whiteSpace=wrap;rounded=0;" vertex="1" parent="OdPtIPOlF_7DUM1VeVN8-24">
          <mxGeometry x="10" y="330" width="60" height="60" as="geometry" />
        </mxCell>
        <mxCell id="OdPtIPOlF_7DUM1VeVN8-63" value="Governance" style="rounded=0;whiteSpace=wrap;html=1;" vertex="1" parent="OdPtIPOlF_7DUM1VeVN8-24">
          <mxGeometry x="270" y="400" width="180" height="60" as="geometry" />
        </mxCell>
        <mxCell id="OdPtIPOlF_7DUM1VeVN8-68" value="Validate Voucher" style="text;html=1;align=center;verticalAlign=middle;whiteSpace=wrap;rounded=0;" vertex="1" parent="OdPtIPOlF_7DUM1VeVN8-24">
          <mxGeometry x="260" y="150" width="60" height="40" as="geometry" />
        </mxCell>
        <mxCell id="OdPtIPOlF_7DUM1VeVN8-70" value="Distributes Rewards" style="text;html=1;align=center;verticalAlign=middle;whiteSpace=wrap;rounded=0;" vertex="1" parent="OdPtIPOlF_7DUM1VeVN8-24">
          <mxGeometry x="110" y="300" width="60" height="60" as="geometry" />
        </mxCell>
        <mxCell id="OdPtIPOlF_7DUM1VeVN8-34" value="" style="edgeStyle=orthogonalEdgeStyle;rounded=0;orthogonalLoop=1;jettySize=auto;html=1;exitX=1;exitY=0.75;exitDx=0;exitDy=0;entryX=0;entryY=0.25;entryDx=0;entryDy=0;" edge="1" parent="1" source="OdPtIPOlF_7DUM1VeVN8-31" target="OdPtIPOlF_7DUM1VeVN8-48">
          <mxGeometry relative="1" as="geometry">
            <mxPoint x="170" y="280" as="targetPoint" />
          </mxGeometry>
        </mxCell>
        <mxCell id="OdPtIPOlF_7DUM1VeVN8-31" value="Gyms" style="whiteSpace=wrap;html=1;aspect=fixed;" vertex="1" parent="1">
          <mxGeometry y="160" width="120" height="120" as="geometry" />
        </mxCell>
        <mxCell id="OdPtIPOlF_7DUM1VeVN8-33" value="" style="edgeStyle=orthogonalEdgeStyle;rounded=0;orthogonalLoop=1;jettySize=auto;html=1;entryX=1;entryY=0.25;entryDx=0;entryDy=0;exitX=0;exitY=0.75;exitDx=0;exitDy=0;" edge="1" parent="1" source="OdPtIPOlF_7DUM1VeVN8-32" target="OdPtIPOlF_7DUM1VeVN8-46">
          <mxGeometry relative="1" as="geometry">
            <mxPoint x="680" y="254.9999999999999" as="targetPoint" />
          </mxGeometry>
        </mxCell>
        <mxCell id="OdPtIPOlF_7DUM1VeVN8-37" value="" style="edgeStyle=orthogonalEdgeStyle;rounded=0;orthogonalLoop=1;jettySize=auto;html=1;entryX=1;entryY=0.25;entryDx=0;entryDy=0;exitX=0;exitY=0.25;exitDx=0;exitDy=0;" edge="1" parent="1" source="OdPtIPOlF_7DUM1VeVN8-32" target="OdPtIPOlF_7DUM1VeVN8-36">
          <mxGeometry relative="1" as="geometry" />
        </mxCell>
        <mxCell id="OdPtIPOlF_7DUM1VeVN8-32" value="Costumers" style="whiteSpace=wrap;html=1;aspect=fixed;" vertex="1" parent="1">
          <mxGeometry x="730" y="160" width="120" height="120" as="geometry" />
        </mxCell>
        <mxCell id="OdPtIPOlF_7DUM1VeVN8-41" value="" style="edgeStyle=orthogonalEdgeStyle;rounded=0;orthogonalLoop=1;jettySize=auto;html=1;entryX=0.5;entryY=1;entryDx=0;entryDy=0;exitX=1;exitY=0.75;exitDx=0;exitDy=0;" edge="1" parent="1" source="OdPtIPOlF_7DUM1VeVN8-46" target="OdPtIPOlF_7DUM1VeVN8-32">
          <mxGeometry relative="1" as="geometry">
            <mxPoint x="680" y="324.9999999999999" as="sourcePoint" />
          </mxGeometry>
        </mxCell>
        <mxCell id="OdPtIPOlF_7DUM1VeVN8-43" value="&lt;div&gt;Purchase Voucher&lt;/div&gt;" style="text;html=1;align=center;verticalAlign=middle;whiteSpace=wrap;rounded=0;" vertex="1" parent="1">
          <mxGeometry x="670" y="220" width="60" height="30" as="geometry" />
        </mxCell>
        <mxCell id="OdPtIPOlF_7DUM1VeVN8-47" value="Mint NFT" style="text;html=1;align=center;verticalAlign=middle;whiteSpace=wrap;rounded=0;" vertex="1" parent="1">
          <mxGeometry x="730" y="330" width="60" height="30" as="geometry" />
        </mxCell>
        <mxCell id="OdPtIPOlF_7DUM1VeVN8-53" value="" style="edgeStyle=orthogonalEdgeStyle;rounded=0;orthogonalLoop=1;jettySize=auto;html=1;entryX=1;entryY=0.25;entryDx=0;entryDy=0;exitX=0.5;exitY=0;exitDx=0;exitDy=0;" edge="1" parent="1" source="OdPtIPOlF_7DUM1VeVN8-48" target="OdPtIPOlF_7DUM1VeVN8-31">
          <mxGeometry relative="1" as="geometry">
            <mxPoint x="240" y="130.00000000000023" as="targetPoint" />
          </mxGeometry>
        </mxCell>
        <mxCell id="OdPtIPOlF_7DUM1VeVN8-55" value="Register" style="text;html=1;align=center;verticalAlign=middle;whiteSpace=wrap;rounded=0;" vertex="1" parent="1">
          <mxGeometry x="120" y="250" width="70" height="30" as="geometry" />
        </mxCell>
        <mxCell id="OdPtIPOlF_7DUM1VeVN8-61" value="" style="edgeStyle=orthogonalEdgeStyle;rounded=0;orthogonalLoop=1;jettySize=auto;html=1;entryX=0.25;entryY=1;entryDx=0;entryDy=0;exitX=0.25;exitY=0;exitDx=0;exitDy=0;" edge="1" parent="1" source="OdPtIPOlF_7DUM1VeVN8-58" target="OdPtIPOlF_7DUM1VeVN8-45">
          <mxGeometry relative="1" as="geometry" />
        </mxCell>
        <mxCell id="OdPtIPOlF_7DUM1VeVN8-64" value="" style="edgeStyle=orthogonalEdgeStyle;rounded=0;orthogonalLoop=1;jettySize=auto;html=1;exitX=0.75;exitY=0;exitDx=0;exitDy=0;entryX=0.75;entryY=1;entryDx=0;entryDy=0;" edge="1" parent="1" source="OdPtIPOlF_7DUM1VeVN8-58" target="OdPtIPOlF_7DUM1VeVN8-63">
          <mxGeometry relative="1" as="geometry" />
        </mxCell>
        <mxCell id="OdPtIPOlF_7DUM1VeVN8-58" value="Stakeholders" style="rounded=0;whiteSpace=wrap;html=1;" vertex="1" parent="1">
          <mxGeometry x="200" y="600" width="470" height="60" as="geometry" />
        </mxCell>
        <mxCell id="OdPtIPOlF_7DUM1VeVN8-62" value="Stakes DGYM" style="text;html=1;align=center;verticalAlign=middle;whiteSpace=wrap;rounded=0;" vertex="1" parent="1">
          <mxGeometry x="210" y="530" width="60" height="60" as="geometry" />
        </mxCell>
        <mxCell id="OdPtIPOlF_7DUM1VeVN8-66" value="Voting &amp;amp; Proposals" style="text;html=1;align=center;verticalAlign=middle;whiteSpace=wrap;rounded=0;" vertex="1" parent="1">
          <mxGeometry x="600" y="530" width="60" height="60" as="geometry" />
        </mxCell>
      </root>
    </mxGraphModel>
  </diagram>
  <diagram id="OekJGUSRygk2Ean5werb" name="Reward DGYM">
    <mxGraphModel dx="1364" dy="766" grid="1" gridSize="10" guides="1" tooltips="1" connect="1" arrows="1" fold="1" page="1" pageScale="1" pageWidth="850" pageHeight="1100" math="0" shadow="0">
      <root>
        <mxCell id="0" />
        <mxCell id="1" parent="0" />
        <mxCell id="L6WOt8i7IjdDkUiOWUTl-4" value="" style="edgeStyle=orthogonalEdgeStyle;rounded=0;orthogonalLoop=1;jettySize=auto;html=1;" parent="1" source="L6WOt8i7IjdDkUiOWUTl-1" target="L6WOt8i7IjdDkUiOWUTl-3" edge="1">
          <mxGeometry relative="1" as="geometry" />
        </mxCell>
        <mxCell id="L6WOt8i7IjdDkUiOWUTl-1" value="Inflation Period Starts" style="strokeWidth=2;html=1;shape=mxgraph.flowchart.start_2;whiteSpace=wrap;" parent="1" vertex="1">
          <mxGeometry x="375" y="30" width="100" height="100" as="geometry" />
        </mxCell>
        <mxCell id="L6WOt8i7IjdDkUiOWUTl-7" value="" style="edgeStyle=orthogonalEdgeStyle;rounded=0;orthogonalLoop=1;jettySize=auto;html=1;" parent="1" source="L6WOt8i7IjdDkUiOWUTl-3" target="L6WOt8i7IjdDkUiOWUTl-6" edge="1">
          <mxGeometry relative="1" as="geometry" />
        </mxCell>
        <mxCell id="L6WOt8i7IjdDkUiOWUTl-3" value="calculateRewards()" style="rounded=1;whiteSpace=wrap;html=1;strokeWidth=2;" parent="1" vertex="1">
          <mxGeometry x="365" y="220" width="120" height="60" as="geometry" />
        </mxCell>
        <mxCell id="qoHCmw9D8qPZ_nMWAnb5-2" value="" style="edgeStyle=orthogonalEdgeStyle;rounded=0;orthogonalLoop=1;jettySize=auto;html=1;" parent="1" source="L6WOt8i7IjdDkUiOWUTl-6" target="qoHCmw9D8qPZ_nMWAnb5-1" edge="1">
          <mxGeometry relative="1" as="geometry" />
        </mxCell>
        <mxCell id="L6WOt8i7IjdDkUiOWUTl-6" value="totalStaked" style="shape=parallelogram;perimeter=parallelogramPerimeter;whiteSpace=wrap;html=1;fixedSize=1;rounded=1;strokeWidth=2;" parent="1" vertex="1">
          <mxGeometry x="325.5" y="300" width="204.5" height="60" as="geometry" />
        </mxCell>
        <mxCell id="L6WOt8i7IjdDkUiOWUTl-12" value="Calculate Inflation" style="text;html=1;align=center;verticalAlign=middle;whiteSpace=wrap;rounded=0;" parent="1" vertex="1">
          <mxGeometry x="150" y="655" width="60" height="30" as="geometry" />
        </mxCell>
        <mxCell id="L6WOt8i7IjdDkUiOWUTl-13" value="Calculate Rewards" style="text;html=1;align=center;verticalAlign=middle;whiteSpace=wrap;rounded=0;" parent="1" vertex="1">
          <mxGeometry x="220" y="745" width="60" height="30" as="geometry" />
        </mxCell>
        <mxCell id="qoHCmw9D8qPZ_nMWAnb5-12" value="" style="edgeStyle=orthogonalEdgeStyle;rounded=0;orthogonalLoop=1;jettySize=auto;html=1;" parent="1" source="qoHCmw9D8qPZ_nMWAnb5-1" target="qoHCmw9D8qPZ_nMWAnb5-9" edge="1">
          <mxGeometry relative="1" as="geometry" />
        </mxCell>
        <mxCell id="qoHCmw9D8qPZ_nMWAnb5-1" value="&lt;div&gt;totalUnclaimedRewards&lt;/div&gt;" style="shape=parallelogram;perimeter=parallelogramPerimeter;whiteSpace=wrap;html=1;fixedSize=1;rounded=1;strokeWidth=2;" parent="1" vertex="1">
          <mxGeometry x="325" y="380" width="205" height="60" as="geometry" />
        </mxCell>
        <mxCell id="qoHCmw9D8qPZ_nMWAnb5-6" value="" style="edgeStyle=orthogonalEdgeStyle;rounded=0;orthogonalLoop=1;jettySize=auto;html=1;" parent="1" source="qoHCmw9D8qPZ_nMWAnb5-4" target="qoHCmw9D8qPZ_nMWAnb5-5" edge="1">
          <mxGeometry relative="1" as="geometry" />
        </mxCell>
        <mxCell id="qoHCmw9D8qPZ_nMWAnb5-4" value="" style="strokeWidth=2;html=1;shape=mxgraph.flowchart.annotation_2;align=left;labelPosition=right;pointerEvents=1;" parent="1" vertex="1">
          <mxGeometry x="260" y="300" width="100" height="140" as="geometry" />
        </mxCell>
        <mxCell id="qoHCmw9D8qPZ_nMWAnb5-5" value="&lt;div align=&quot;center&quot;&gt;Stake Manager&lt;br&gt;&lt;/div&gt;" style="whiteSpace=wrap;html=1;align=center;strokeWidth=2;pointerEvents=1;" parent="1" vertex="1">
          <mxGeometry x="130" y="340" width="120" height="60" as="geometry" />
        </mxCell>
        <mxCell id="qoHCmw9D8qPZ_nMWAnb5-8" value="" style="edgeStyle=orthogonalEdgeStyle;rounded=0;orthogonalLoop=1;jettySize=auto;html=1;" parent="1" source="qoHCmw9D8qPZ_nMWAnb5-9" target="qoHCmw9D8qPZ_nMWAnb5-10" edge="1">
          <mxGeometry relative="1" as="geometry" />
        </mxCell>
        <mxCell id="qoHCmw9D8qPZ_nMWAnb5-9" value="currentSupply()" style="shape=parallelogram;perimeter=parallelogramPerimeter;whiteSpace=wrap;html=1;fixedSize=1;rounded=1;strokeWidth=2;" parent="1" vertex="1">
          <mxGeometry x="325.5" y="470" width="204.5" height="60" as="geometry" />
        </mxCell>
        <mxCell id="qoHCmw9D8qPZ_nMWAnb5-20" value="" style="edgeStyle=orthogonalEdgeStyle;rounded=0;orthogonalLoop=1;jettySize=auto;html=1;" parent="1" source="qoHCmw9D8qPZ_nMWAnb5-10" target="qoHCmw9D8qPZ_nMWAnb5-19" edge="1">
          <mxGeometry relative="1" as="geometry" />
        </mxCell>
        <mxCell id="qoHCmw9D8qPZ_nMWAnb5-10" value="maxSupply()" style="shape=parallelogram;perimeter=parallelogramPerimeter;whiteSpace=wrap;html=1;fixedSize=1;rounded=1;strokeWidth=2;" parent="1" vertex="1">
          <mxGeometry x="325" y="550" width="205" height="60" as="geometry" />
        </mxCell>
        <mxCell id="qoHCmw9D8qPZ_nMWAnb5-14" value="" style="edgeStyle=orthogonalEdgeStyle;rounded=0;orthogonalLoop=1;jettySize=auto;html=1;" parent="1" source="qoHCmw9D8qPZ_nMWAnb5-11" target="qoHCmw9D8qPZ_nMWAnb5-13" edge="1">
          <mxGeometry relative="1" as="geometry" />
        </mxCell>
        <mxCell id="qoHCmw9D8qPZ_nMWAnb5-11" value="" style="strokeWidth=2;html=1;shape=mxgraph.flowchart.annotation_2;align=left;labelPosition=right;pointerEvents=1;" parent="1" vertex="1">
          <mxGeometry x="262" y="470" width="100" height="140" as="geometry" />
        </mxCell>
        <mxCell id="qoHCmw9D8qPZ_nMWAnb5-13" value="DGYM Token" style="whiteSpace=wrap;html=1;align=center;strokeWidth=2;pointerEvents=1;" parent="1" vertex="1">
          <mxGeometry x="130" y="510" width="120" height="60" as="geometry" />
        </mxCell>
        <mxCell id="qoHCmw9D8qPZ_nMWAnb5-24" value="" style="edgeStyle=orthogonalEdgeStyle;rounded=0;orthogonalLoop=1;jettySize=auto;html=1;" parent="1" source="qoHCmw9D8qPZ_nMWAnb5-19" target="qoHCmw9D8qPZ_nMWAnb5-23" edge="1">
          <mxGeometry relative="1" as="geometry" />
        </mxCell>
        <mxCell id="qoHCmw9D8qPZ_nMWAnb5-19" value="inflationRate = (decayConstant * (maxSupply - currentSupply)) / maxSupply" style="whiteSpace=wrap;html=1;rounded=1;strokeWidth=2;" parent="1" vertex="1">
          <mxGeometry x="216.5" y="640" width="422.5" height="60" as="geometry" />
        </mxCell>
        <mxCell id="qoHCmw9D8qPZ_nMWAnb5-34" value="" style="edgeStyle=orthogonalEdgeStyle;rounded=0;orthogonalLoop=1;jettySize=auto;html=1;entryX=0.5;entryY=0;entryDx=0;entryDy=0;entryPerimeter=0;" parent="1" source="qoHCmw9D8qPZ_nMWAnb5-23" target="qoHCmw9D8qPZ_nMWAnb5-35" edge="1">
          <mxGeometry relative="1" as="geometry">
            <mxPoint x="427.75" y="820" as="targetPoint" />
          </mxGeometry>
        </mxCell>
        <mxCell id="qoHCmw9D8qPZ_nMWAnb5-23" value="daoRewards = currentSupply * inflationRate" style="whiteSpace=wrap;html=1;rounded=1;strokeWidth=2;" parent="1" vertex="1">
          <mxGeometry x="288.56" y="730" width="278.37" height="60" as="geometry" />
        </mxCell>
        <mxCell id="qoHCmw9D8qPZ_nMWAnb5-35" value="Update Rewards" style="strokeWidth=2;html=1;shape=mxgraph.flowchart.start_2;whiteSpace=wrap;" parent="1" vertex="1">
          <mxGeometry x="377.75" y="830" width="100" height="100" as="geometry" />
        </mxCell>
        <mxCell id="It9TTmjdMdz8OXc38JSJ-1" value="Treasury" style="swimlane;" parent="1" vertex="1">
          <mxGeometry x="107.75" y="160" width="640" height="800" as="geometry" />
        </mxCell>
        <mxCell id="It9TTmjdMdz8OXc38JSJ-5" value="" style="edgeStyle=orthogonalEdgeStyle;rounded=0;orthogonalLoop=1;jettySize=auto;html=1;" parent="1" source="It9TTmjdMdz8OXc38JSJ-3" target="It9TTmjdMdz8OXc38JSJ-4" edge="1">
          <mxGeometry relative="1" as="geometry" />
        </mxCell>
        <mxCell id="It9TTmjdMdz8OXc38JSJ-3" value="Update Rewards" style="strokeWidth=2;html=1;shape=mxgraph.flowchart.start_2;whiteSpace=wrap;" parent="1" vertex="1">
          <mxGeometry x="1100" y="30" width="100" height="100" as="geometry" />
        </mxCell>
        <mxCell id="It9TTmjdMdz8OXc38JSJ-2" value="Stake Manager" style="swimlane;" parent="1" vertex="1">
          <mxGeometry x="830" y="160" width="640" height="800" as="geometry" />
        </mxCell>
        <mxCell id="It9TTmjdMdz8OXc38JSJ-7" value="" style="edgeStyle=orthogonalEdgeStyle;rounded=0;orthogonalLoop=1;jettySize=auto;html=1;" parent="It9TTmjdMdz8OXc38JSJ-2" source="It9TTmjdMdz8OXc38JSJ-4" target="It9TTmjdMdz8OXc38JSJ-6" edge="1">
          <mxGeometry relative="1" as="geometry" />
        </mxCell>
        <mxCell id="It9TTmjdMdz8OXc38JSJ-4" value="totalStakedAmount" style="rounded=1;whiteSpace=wrap;html=1;strokeWidth=2;" parent="It9TTmjdMdz8OXc38JSJ-2" vertex="1">
          <mxGeometry x="260" y="70" width="120" height="60" as="geometry" />
        </mxCell>
        <mxCell id="It9TTmjdMdz8OXc38JSJ-9" value="" style="edgeStyle=orthogonalEdgeStyle;rounded=0;orthogonalLoop=1;jettySize=auto;html=1;" parent="It9TTmjdMdz8OXc38JSJ-2" source="It9TTmjdMdz8OXc38JSJ-6" target="It9TTmjdMdz8OXc38JSJ-8" edge="1">
          <mxGeometry relative="1" as="geometry" />
        </mxCell>
        <mxCell id="It9TTmjdMdz8OXc38JSJ-6" value="For each stakholder" style="rhombus;whiteSpace=wrap;html=1;rounded=1;strokeWidth=2;" parent="It9TTmjdMdz8OXc38JSJ-2" vertex="1">
          <mxGeometry x="255" y="200" width="130" height="130" as="geometry" />
        </mxCell>
        <mxCell id="It9TTmjdMdz8OXc38JSJ-15" value="" style="edgeStyle=orthogonalEdgeStyle;rounded=0;orthogonalLoop=1;jettySize=auto;html=1;" parent="It9TTmjdMdz8OXc38JSJ-2" source="It9TTmjdMdz8OXc38JSJ-8" target="It9TTmjdMdz8OXc38JSJ-14" edge="1">
          <mxGeometry relative="1" as="geometry" />
        </mxCell>
        <mxCell id="It9TTmjdMdz8OXc38JSJ-14" value="updateReward" style="whiteSpace=wrap;html=1;rounded=1;strokeWidth=2;" parent="It9TTmjdMdz8OXc38JSJ-2" vertex="1">
          <mxGeometry x="260" y="525" width="120" height="60" as="geometry" />
        </mxCell>
        <mxCell id="It9TTmjdMdz8OXc38JSJ-16" value="StakePool" style="swimlane;" parent="It9TTmjdMdz8OXc38JSJ-2" vertex="1">
          <mxGeometry x="130" y="350" width="380" height="350" as="geometry" />
        </mxCell>
        <mxCell id="It9TTmjdMdz8OXc38JSJ-8" value="rewardAmount = (totalStakedPool * daoRewards) / totalStaked" style="whiteSpace=wrap;html=1;rounded=1;strokeWidth=2;" parent="It9TTmjdMdz8OXc38JSJ-16" vertex="1">
          <mxGeometry x="42.5" y="70" width="295" height="60" as="geometry" />
        </mxCell>
      </root>
    </mxGraphModel>
  </diagram>
</mxfile>
